<svg xmlns="http://www.w3.org/2000/svg" data-name="Layer 1" viewBox="0 0 64 80" x="0px" y="0px"><title>x</title><path d="M9.34,7.52A2.35,2.35,0,0,0,7,9.83v5.7a1,1,0,1,0,2,0V9.83a.41.41,0,0,1,.44-.36H15.5a1,1,0,1,0,0-2Z"/><path d="M7.92,47.56a1,1,0,0,0-1,1v5.64a2.35,2.35,0,0,0,2.39,2.31H15.5a1,1,0,1,0,0-1.95H9.34a.41.41,0,0,1-.44-.36V48.53A1,1,0,0,0,7.92,47.56Z"/><path d="M54.66,56.48a2.35,2.35,0,0,0,2.39-2.31V48.53a1,1,0,0,0-1.95,0v5.64a.41.41,0,0,1-.44.36H48.5a1,1,0,1,0,0,1.95Z"/><path d="M57.05,9.83a2.35,2.35,0,0,0-2.39-2.31H48.5a1,1,0,1,0,0,2h6.16a.41.41,0,0,1,.44.36v5.7a1,1,0,1,0,1.95,0Z"/><path d="M1,32.52s0,0,0,0a40.74,40.74,0,0,0,3.83,4.3,1,1,0,0,0,.33.21.87.87,0,0,0,.48.17A.89.89,0,0,0,6.27,37L8.2,35.17a.9.9,0,0,0,.26-.73l-.22-2,.25-.26A2.6,2.6,0,0,0,10,32.6a2.71,2.71,0,0,0,.74-.11,2.62,2.62,0,0,0,1.76-3.25,2.66,2.66,0,0,0-3.25-1.76,2.61,2.61,0,0,0-1.77,3.2l-.75.8a.87.87,0,0,0-.24.7l.22,2L5.79,35c-1.33-1.37-2.24-2.43-2.73-3C5.55,29,17.69,15.34,32,15.34c6.42,0,13.07,2.64,19.77,7.85l-.62.75-2-.11a.86.86,0,0,0-.69.27l-.57.6a2.68,2.68,0,0,0-3,1,2.61,2.61,0,0,0,2.17,4.06h0a2.61,2.61,0,0,0,2.21-4l.16-.17,2.06.12a.83.83,0,0,0,.72-.32l1.5-1.8.08-.06a1.29,1.29,0,0,0,.18-.35.9.9,0,0,0-.07-.68.86.86,0,0,0-.26-.34C46.36,16.34,39.08,13.39,32,13.39c-17,0-30.4,17.28-31,18,0,0,0,0,0,.05a.56.56,0,0,0-.09.17,1.15,1.15,0,0,0-.06.17.61.61,0,0,0,0,.19,1.08,1.08,0,0,0,0,.18.85.85,0,0,0,.06.17A.58.58,0,0,0,1,32.52Zm8.71-3.36a1,1,0,0,1,.25,0,.84.84,0,1,1-.25,0Zm38.06-1.52a.87.87,0,0,1-1.19.23.81.81,0,0,1-.36-.54.83.83,0,0,1,.13-.65.87.87,0,0,1,.71-.38.85.85,0,0,1,.48.15A.86.86,0,0,1,47.77,27.64Z"/><path d="M21.35,32A10.65,10.65,0,1,0,32,21.35,10.67,10.67,0,0,0,21.35,32ZM40.7,32A8.7,8.7,0,1,1,32,23.3,8.71,8.71,0,0,1,40.7,32Z"/><path d="M27.18,30.92a4.94,4.94,0,0,0,7.88,5,1,1,0,0,0-1.21-1.53,3,3,0,0,1-2.51.57,3,3,0,0,1-2.26-3.58A3,3,0,0,1,34,29.76a1,1,0,0,0,1.38-.09,1,1,0,0,0-.09-1.37,4.93,4.93,0,0,0-8.09,2.62Z"/><path d="M35,31.73a2.09,2.09,0,0,1,0,.5,1,1,0,0,0,.9,1.05H36a1,1,0,0,0,1-.9,4.38,4.38,0,0,0,0-.81,1,1,0,0,0-1.05-.89A1,1,0,0,0,35,31.73Z"/><path d="M56.58,24.37a.88.88,0,0,0-1.24,0l-7.21,7.68a2.7,2.7,0,0,0-3.14,1A2.61,2.61,0,1,0,49.33,36a2.57,2.57,0,0,0,.39-2,2.42,2.42,0,0,0-.28-.75l7.18-7.65A.88.88,0,0,0,56.58,24.37ZM47.87,35a.85.85,0,0,1-1.42-1,.86.86,0,0,1,.71-.38.9.9,0,0,1,.48.14.83.83,0,0,1,.36.55A.81.81,0,0,1,47.87,35Z"/><path d="M63.14,31.83a.85.85,0,0,0-.06-.17.75.75,0,0,0-.08-.18s0,0,0-.05a40.74,40.74,0,0,0-3.83-4.3,1.15,1.15,0,0,0-.33-.21.88.88,0,0,0-1.09.07L55.8,28.83a.9.9,0,0,0-.26.73l.22,2.05-.26.27a2.66,2.66,0,0,0-2.2-.37A2.61,2.61,0,0,0,54,36.63a2.78,2.78,0,0,0,.75-.11,2.61,2.61,0,0,0,1.77-3.2l.75-.8a.87.87,0,0,0,.24-.7l-.22-2,.88-.84c1.33,1.37,2.24,2.43,2.73,3C58.45,35,46.31,48.66,32,48.66c-6.42,0-13.07-2.64-19.77-7.85l.62-.75,2,.12a.9.9,0,0,0,.69-.28l.56-.59a2.52,2.52,0,0,0,.82.14,2.59,2.59,0,0,0,2.17-1.16,2.56,2.56,0,0,0,.39-2,2.61,2.61,0,0,0-1.1-1.66,2.68,2.68,0,0,0-3.63.72,2.61,2.61,0,0,0,0,2.84l-.16.17-2.06-.12a.87.87,0,0,0-.72.32l-1.5,1.8-.08.06a1.29,1.29,0,0,0-.18.35.9.9,0,0,0,.07.68.86.86,0,0,0,.26.34c7.28,5.83,14.56,8.78,21.64,8.78,17,0,30.4-17.28,31-18,0,0,0,0,0-.05a.56.56,0,0,0,.09-.17,1.15,1.15,0,0,0,.06-.17.61.61,0,0,0,0-.19A1.08,1.08,0,0,0,63.14,31.83Zm-8.85,3a.88.88,0,0,1-1.07-.58.86.86,0,0,1,.07-.65.84.84,0,0,1,.51-.41.69.69,0,0,1,.25,0,.86.86,0,0,1,.24,1.68ZM16.23,36.36a.84.84,0,0,1,.71-.38.83.83,0,0,1,.48.15.81.81,0,0,1,.36.54.83.83,0,0,1-.13.65.87.87,0,0,1-.71.38.85.85,0,0,1-.48-.15A.86.86,0,0,1,16.23,36.36Z"/><path d="M16.84,32.1a2.61,2.61,0,0,0,1.45-4.78,2.67,2.67,0,0,0-3.62.71,2.62,2.62,0,0,0-.11,2.71L7.38,38.39a.88.88,0,1,0,1.28,1.2l7.21-7.68A2.66,2.66,0,0,0,16.84,32.1ZM16.13,29a.85.85,0,0,1,1.42.95.86.86,0,0,1-.71.38.9.9,0,0,1-.48-.14A.85.85,0,0,1,16.13,29Z"/><text x="0" y="79" fill="#000000" font-size="5px" font-weight="bold" font-family="'Helvetica Neue', Helvetica, Arial-Unicode, Arial, Sans-serif">Created by Sahab Uddin</text><text x="0" y="84" fill="#000000" font-size="5px" font-weight="bold" font-family="'Helvetica Neue', Helvetica, Arial-Unicode, Arial, Sans-serif">from the Noun Project</text></svg>